<svg viewBox="0 0 19 24" fill="none" xmlns="http://www.w3.org/2000/svg">
	<path d="M14.2068 23.2765C13.8304 23.1682 13.4499 22.7225 13.372 22.2971C13.3215 22.0201 13.3864 21.8279 13.7897 21.0599C15.421 17.9568 16.1381 15.1008 16.1565 11.6346C16.1743 8.28456 15.5678 5.67803 14.0394 2.554C13.712 1.8835 13.4437 1.26076 13.4442 1.1707C13.4459 0.838325 13.729 0.356348 14.0328 0.16724C14.4497 -0.09188 15.147 -0.0433871 15.4793 0.267616C15.6063 0.387153 15.9374 0.930449 16.2135 1.47434C17.3063 3.62881 18.0506 5.99258 18.4116 8.45289C18.635 9.97548 18.6657 12.8612 18.4728 14.2551C18.1192 16.8264 17.4228 19.1207 16.3171 21.3684C15.6479 22.727 15.2309 23.286 14.8821 23.286C14.8123 23.286 14.6994 23.3032 14.6311 23.3243C14.5612 23.3451 14.3698 23.3237 14.2068 23.2765ZM9.72222 20.9405C9.14577 20.7733 8.73247 20.0686 8.9015 19.5407C8.94225 19.4129 9.21846 18.824 9.51398 18.2322C10.7636 15.7264 11.2929 13.0401 11.0546 10.4028C10.8598 8.23577 10.4752 6.86898 9.50038 4.86928C8.84705 3.52769 8.81699 3.31972 9.20426 2.77967C9.57357 2.26599 10.4853 2.18271 10.9624 2.61915C11.2932 2.9216 12.3133 5.06354 12.7061 6.2766C14.0042 10.291 13.7795 14.6004 12.0681 18.544C11.1921 20.5642 10.5802 21.1887 9.72222 20.9405ZM5.09827 18.5715C4.74144 18.4115 4.43621 18.0362 4.35511 17.658C4.30439 17.4276 4.39479 17.1726 4.8223 16.3199C6.39732 13.1877 6.42968 10.1706 4.92318 7.1113C4.26096 5.76751 4.24753 5.50013 4.81582 4.97024C5.09771 4.70877 5.21521 4.66248 5.60852 4.66248C6.266 4.66248 6.60413 4.99058 7.18549 6.1892C8.07955 8.03281 8.44062 9.6322 8.42676 11.6813C8.4126 13.7875 8.05911 15.2333 7.08407 17.1775C6.52456 18.2906 6.24992 18.5845 5.69592 18.6598C5.5266 18.6828 5.25818 18.643 5.09827 18.5715ZM0.783648 16.3648C0.50079 16.2485 0.18076 15.8658 0.0860554 15.5333C-0.0188298 15.1616 0.0703076 14.8665 0.498466 14.1725C1.04938 13.2799 1.17957 12.8009 1.18577 11.6344C1.19196 10.4679 1.06687 9.98874 0.525435 9.09612C0.341522 8.79352 0.157928 8.43093 0.115634 8.29046C-0.0563722 7.70206 0.440206 6.98115 1.10428 6.85764C1.66734 6.75284 2.0519 7.00194 2.56413 7.80303C4.04785 10.1224 4.03139 13.2208 2.52313 15.5205C1.99046 16.3319 1.39971 16.6186 0.783648 16.3648Z" fill="black" />
</svg>
