<svg width="61" height="51" viewBox="0 0 61 51" fill="none" xmlns="http://www.w3.org/2000/svg">
<mask id="path-1-outside-1_292_3301" maskUnits="userSpaceOnUse" x="30.874" y="3.91016" width="12" height="9" fill="black">
<rect fill="white" x="30.874" y="3.91016" width="12" height="9"/>
<path d="M32.3303 12.2528C31.9924 12.1559 31.8 11.8142 31.9008 11.4892C33.0744 7.69559 36.7295 4.91016 41.0786 4.91016C41.4311 4.91016 41.7169 5.18514 41.7169 5.52417C41.7169 5.86318 41.4311 6.13817 41.0786 6.13817C37.4335 6.13817 34.1627 8.48236 33.1241 11.8392C33.0243 12.1637 32.6696 12.3501 32.3303 12.2527L32.3303 12.2528Z"/>
</mask>
<path d="M32.3303 12.2528C31.9924 12.1559 31.8 11.8142 31.9008 11.4892C33.0744 7.69559 36.7295 4.91016 41.0786 4.91016C41.4311 4.91016 41.7169 5.18514 41.7169 5.52417C41.7169 5.86318 41.4311 6.13817 41.0786 6.13817C37.4335 6.13817 34.1627 8.48236 33.1241 11.8392C33.0243 12.1637 32.6696 12.3501 32.3303 12.2527L32.3303 12.2528Z" fill="#483EA8"/>
<path d="M32.3303 12.2528C31.9924 12.1559 31.8 11.8142 31.9008 11.4892C33.0744 7.69559 36.7295 4.91016 41.0786 4.91016C41.4311 4.91016 41.7169 5.18514 41.7169 5.52417C41.7169 5.86318 41.4311 6.13817 41.0786 6.13817C37.4335 6.13817 34.1627 8.48236 33.1241 11.8392C33.0243 12.1637 32.6696 12.3501 32.3303 12.2527L32.3303 12.2528Z" stroke="#F9FFF9" stroke-width="0.6" mask="url(#path-1-outside-1_292_3301)"/>
<path d="M50.0144 35.6105H46.1847C45.8323 35.6105 45.5464 35.3355 45.5464 34.9965C45.5464 34.6575 45.8323 34.3825 46.1847 34.3825H50.0144C55.2936 34.3825 59.5889 30.2506 59.5889 25.1725C59.5889 20.0943 55.2936 15.9624 50.0144 15.9624H49.9223C49.7372 15.9624 49.5612 15.8852 49.44 15.7506C49.3187 15.616 49.264 15.4374 49.2904 15.2611C49.3474 14.8787 49.3761 14.4945 49.3761 14.1204C49.3761 9.71936 45.6535 6.13835 41.0783 6.13835C39.2983 6.13835 37.6009 6.67341 36.1692 7.68606C35.8547 7.90842 35.4079 7.80974 35.2259 7.47686C31.1714 0.0500942 20.5814 -0.947245 15.0911 5.51339C12.7782 8.23516 11.8694 11.7758 12.5976 15.2265C12.6779 15.6076 12.3747 15.9629 11.9721 15.9629H11.7163C6.4372 15.9629 2.14189 20.0947 2.14189 25.1729C2.14189 30.2511 6.4372 34.383 11.7163 34.383H15.546C15.8985 34.383 16.1843 34.6579 16.1843 34.997C16.1843 35.336 15.8985 35.611 15.546 35.611H11.7163C5.73316 35.611 0.865234 30.9283 0.865234 25.1729C0.865234 19.5789 5.46366 14.9984 11.2152 14.7458C10.675 11.1657 11.7081 7.55446 14.1026 4.73625C19.9808 -2.18135 31.246 -1.40598 36.0081 6.30765C37.5273 5.39146 39.2657 4.91084 41.078 4.91084C46.6212 4.91084 51.0136 9.44922 50.6292 14.7515C56.3278 15.059 60.8652 19.6153 60.8652 25.1724C60.8652 30.9283 55.9973 35.6105 50.0141 35.6105L50.0144 35.6105Z" fill="#483EA8"/>
<mask id="path-3-outside-2_292_3301" maskUnits="userSpaceOnUse" x="13.8223" y="18.2996" width="34" height="33" fill="black">
<rect fill="white" x="13.8223" y="18.2996" width="34" height="33"/>
<path d="M30.7798 50C21.9809 50 14.8223 43.114 14.8223 34.6498C14.8223 26.1857 21.9808 19.2996 30.7798 19.2996C39.5789 19.2996 46.7374 26.1856 46.7374 34.6498C46.7374 43.1139 39.5789 50 30.7798 50V50ZM30.7798 20.5278C22.6849 20.5278 16.0992 26.8631 16.0992 34.6498C16.0992 42.4366 22.685 48.7717 30.7798 48.7717C38.8747 48.7717 45.4605 42.4365 45.4605 34.6498C45.4605 26.863 38.8747 20.5278 30.7798 20.5278V20.5278Z"/>
</mask>
<path d="M30.7798 50C21.9809 50 14.8223 43.114 14.8223 34.6498C14.8223 26.1857 21.9808 19.2996 30.7798 19.2996C39.5789 19.2996 46.7374 26.1856 46.7374 34.6498C46.7374 43.1139 39.5789 50 30.7798 50V50ZM30.7798 20.5278C22.6849 20.5278 16.0992 26.8631 16.0992 34.6498C16.0992 42.4366 22.685 48.7717 30.7798 48.7717C38.8747 48.7717 45.4605 42.4365 45.4605 34.6498C45.4605 26.863 38.8747 20.5278 30.7798 20.5278V20.5278Z" fill="#483EA8"/>
<path d="M30.7798 50C21.9809 50 14.8223 43.114 14.8223 34.6498C14.8223 26.1857 21.9808 19.2996 30.7798 19.2996C39.5789 19.2996 46.7374 26.1856 46.7374 34.6498C46.7374 43.1139 39.5789 50 30.7798 50V50ZM30.7798 20.5278C22.6849 20.5278 16.0992 26.8631 16.0992 34.6498C16.0992 42.4366 22.685 48.7717 30.7798 48.7717C38.8747 48.7717 45.4605 42.4365 45.4605 34.6498C45.4605 26.863 38.8747 20.5278 30.7798 20.5278V20.5278Z" stroke="#F9FFF9" stroke-width="0.6" mask="url(#path-3-outside-2_292_3301)"/>
<mask id="path-4-outside-3_292_3301" maskUnits="userSpaceOnUse" x="29.6045" y="27.6919" width="3" height="14" fill="black">
<rect fill="white" x="29.6045" y="27.6919" width="3" height="14"/>
<path d="M31.0718 41.2785C30.8138 41.2785 30.6045 41.0772 30.6045 40.829V29.1414C30.6045 28.8932 30.8138 28.6919 31.0718 28.6919C31.3298 28.6919 31.5391 28.8932 31.5391 29.1414V40.829C31.5391 41.0775 31.3298 41.2785 31.0718 41.2785Z"/>
</mask>
<path d="M31.0718 41.2785C30.8138 41.2785 30.6045 41.0772 30.6045 40.829V29.1414C30.6045 28.8932 30.8138 28.6919 31.0718 28.6919C31.3298 28.6919 31.5391 28.8932 31.5391 29.1414V40.829C31.5391 41.0775 31.3298 41.2785 31.0718 41.2785Z" fill="#483EA8"/>
<path d="M31.0718 41.2785C30.8138 41.2785 30.6045 41.0772 30.6045 40.829V29.1414C30.6045 28.8932 30.8138 28.6919 31.0718 28.6919C31.3298 28.6919 31.5391 28.8932 31.5391 29.1414V40.829C31.5391 41.0775 31.3298 41.2785 31.0718 41.2785Z" stroke="#483EA8" stroke-width="0.6" mask="url(#path-4-outside-3_292_3301)"/>
<mask id="path-5-outside-4_292_3301" maskUnits="userSpaceOnUse" x="25.8657" y="27.6931" width="10" height="6" fill="black">
<rect fill="white" x="25.8657" y="27.6931" width="10" height="6"/>
<path d="M34.81 33.1884C34.6905 33.1884 34.5706 33.1444 34.4795 33.0567L31.0715 29.7784L27.6636 33.0567C27.4813 33.2323 27.1852 33.2323 27.0027 33.0567C26.8201 32.8811 26.8201 32.5966 27.0027 32.421L30.7411 28.8248C30.9233 28.6492 31.2194 28.6492 31.402 28.8248L35.1404 32.421C35.323 32.5966 35.323 32.8811 35.1404 33.0567C35.0492 33.1447 34.9294 33.1884 34.8099 33.1884H34.81Z"/>
</mask>
<path d="M34.81 33.1884C34.6905 33.1884 34.5706 33.1444 34.4795 33.0567L31.0715 29.7784L27.6636 33.0567C27.4813 33.2323 27.1852 33.2323 27.0027 33.0567C26.8201 32.8811 26.8201 32.5966 27.0027 32.421L30.7411 28.8248C30.9233 28.6492 31.2194 28.6492 31.402 28.8248L35.1404 32.421C35.323 32.5966 35.323 32.8811 35.1404 33.0567C35.0492 33.1447 34.9294 33.1884 34.8099 33.1884H34.81Z" fill="#483EA8"/>
<path d="M34.81 33.1884C34.6905 33.1884 34.5706 33.1444 34.4795 33.0567L31.0715 29.7784L27.6636 33.0567C27.4813 33.2323 27.1852 33.2323 27.0027 33.0567C26.8201 32.8811 26.8201 32.5966 27.0027 32.421L30.7411 28.8248C30.9233 28.6492 31.2194 28.6492 31.402 28.8248L35.1404 32.421C35.323 32.5966 35.323 32.8811 35.1404 33.0567C35.0492 33.1447 34.9294 33.1884 34.8099 33.1884H34.81Z" stroke="#483EA8" stroke-width="0.6" mask="url(#path-5-outside-4_292_3301)"/>
</svg>
