<svg viewBox="0 0 31 39" fill="none" xmlns="http://www.w3.org/2000/svg">
	<path d="M14.2564 1H20.4062M14.2564 1L15.3504 7.93068M14.2564 1L8.05158 12.1277M1 24.7742L3.04995 34.4937M1 24.7742L10.7578 14.2263L15.3504 7.93068M1 24.7742L8.05158 12.1277M1 24.7742L7.81951 28.2533M3.04995 34.4937L14.2564 37.9452M3.04995 34.4937L7.81951 28.2533M14.2564 37.9452L25.3261 34.7698M14.2564 37.9452L7.81951 28.2533M14.2564 37.9452L17.263 27.6182M14.2564 37.9452L22.0735 29.1093M25.3261 34.7698L30 25.713M25.3261 34.7698L22.0735 29.1093M30 25.713L27.0521 15.9382M30 25.713L20.4062 18.4786M30 25.713L22.0735 29.1093M20.4062 1L15.3504 7.93068M20.4062 1L24.0646 6.43962M15.3504 7.93068L18.9849 12.5419M8.05158 12.1277L10.7578 14.5024L12.5891 22.0129M12.5891 22.0129L7.81951 28.2533M12.5891 22.0129L17.263 27.6182M17.263 27.6182L20.4062 18.4786M17.263 27.6182L22.0735 29.1093M20.4062 18.4786L18.9849 12.5419M20.4062 18.4786L27.0521 15.9382M18.9849 12.5419L24.0646 6.43962M24.0646 6.43962L24.2875 6.77096L27.0521 15.9382" stroke="currentColor" stroke-width="0.2" />
</svg>
